<svg width="290" height="80" xmlns="http://www.w3.org/2000/svg" preserveAspectRatio="none">
    <defs id="SvgjsDefs1353"></defs>
    <g id="SvgjsG1354" featurekey="root" fill="#000000"></g>
    <g id="SvgjsG1355" featurekey="symbol1" fill="#000"
        transform="matrix(0.9999578221264253,0,0,0.9999578221264253,-14.996416788014335,-9.999637346577984)">
        <rect x="25.249" y="20.252" transform="matrix(0.7071 0.7071 -0.7071 0.7071 46.463 -22.1737)" fill="none"
            stroke="#000" stroke-width="2" stroke-linecap="round" stroke-linejoin="round" stroke-miterlimit="10"
            width="49.499" height="49.497"></rect>
        <path stroke="#000" stroke-width="2" stroke-linecap="round" stroke-linejoin="round" stroke-miterlimit="10"
            d="M49.999,69.395  l24.394-24.392L50,20.608L25.608,45.002L49.999,69.395z M63.785,45.002L49.999,58.787L36.214,45.002L50,31.215L63.785,45.002z">
        </path>
        <rect x="47.754" y="42.754" transform="matrix(-0.707 0.7072 -0.7072 -0.707 117.1804 41.4576)" stroke="#000"
            stroke-width="2" stroke-linecap="round" stroke-linejoin="round" stroke-miterlimit="10" width="4.496"
            height="4.497"></rect>
        <polygon stroke="#000" stroke-width="2" stroke-linecap="round" stroke-linejoin="round" stroke-miterlimit="10"
            points="  49.999,80 20,50.004 15.002,55 49.999,90 85,55 80,50 "></polygon>
    </g>
    <g id="SvgjsG1356" featurekey="text1" fill="#000"
        transform="matrix(3.210154155074917,0,0,3.210154155074917,84.8637536580243,-1.527426501958864)">
        <path
            d="M1.6 5.699999999999999 l2.86 0 l0 11.44 l4.54 0 l0 2.86 l-7.4 0 l0 -14.3 l0 0 z M18.34 20.2 c-9.84 0 -9.84 -14.74 0 -14.74 s9.84 14.74 0 14.74 l0 0 z M18.34 17.240000000000002 c5.72 0 5.72 -8.84 0 -8.84 s-5.72 8.84 0 8.84 l0 0 z M38.760000000000005 20 l-3.24 0 l-2.88 -5.46 l-1.38 0 l0 5.46 l-2.86 0 l0 -14.3 l5.64 0 c5.1 0 5.6 7.18 1.4 8.4 l3.32 5.9 l0 0 z M31.26 8.56 l0 3.2 l0 0 l2.52 0 c1.94 0 1.94 -3.2 0 -3.2 l-2.52 0 z M48.06 20 l-7.4 0 l0 -14.3 l7.16 0 l0 2.86 l-4.3 0 l0 2.86 l3.76 0 l0 2.86 l-3.76 0 l0 2.86 l4.54 0 l0 2.86 l0 0 z M57.3 11.76 l0 0 l5.64 -6.28 l0.9 0 l0 14.52 l-2.9 0 l0.02 -7.98 l-3.66 3.84 l-3.66 -3.84 l0 7.98 l-2.9 0 l0 -14.52 l0.92 0 z">
        </path>
    </g>
</svg>